<?xml version="1.0" encoding="utf-8"?>
<!-- Generator: Adobe Illustrator 18.1.0, SVG Export Plug-In . SVG Version: 6.00 Build 0)  -->
<svg version="1.1" id="Layer_1" xmlns:sketch="http://www.bohemiancoding.com/sketch/ns"
	 xmlns="http://www.w3.org/2000/svg" xmlns:xlink="http://www.w3.org/1999/xlink" x="0px" y="0px" viewBox="-202 420 386 386"
	 enable-background="new -202 420 386 386" xml:space="preserve">
<title>Rectangle 1</title>
<desc>Created with Sketch.</desc>
<g id="Page-1" sketch:type="MSPage">
</g>
<g>
	<path d="M-9,454.8c51.5,0,57.6,0.2,78,1.1c18.8,0.9,29,4,35.8,6.6c9,3.5,15.4,7.7,22.2,14.4c6.8,6.8,10.9,13.2,14.4,22.2
		c2.6,6.8,5.8,17,6.6,35.8c0.9,20.4,1.1,26.5,1.1,78c0,51.5-0.2,57.6-1.1,78c-0.9,18.8-4,29-6.6,35.8c-3.5,9-7.7,15.4-14.4,22.2
		c-6.8,6.8-13.2,10.9-22.2,14.4c-6.8,2.6-17,5.8-35.8,6.6c-20.3,0.9-26.5,1.1-78,1.1s-57.6-0.2-78-1.1c-18.8-0.9-29-4-35.8-6.6
		c-9-3.5-15.4-7.7-22.2-14.4c-6.8-6.8-10.9-13.2-14.4-22.2c-2.6-6.8-5.8-17-6.6-35.8c-0.9-20.4-1.1-26.5-1.1-78
		c0-51.5,0.2-57.6,1.1-78c0.9-18.8,4-29,6.6-35.8c3.5-9,7.7-15.4,14.4-22.2c6.8-6.8,13.2-10.9,22.2-14.4c6.8-2.6,17-5.8,35.8-6.6
		C-66.6,455-60.5,454.8-9,454.8 M-9,420c-52.4,0-59,0.2-79.6,1.2c-20.5,0.9-34.6,4.2-46.8,9c-12.7,4.9-23.5,11.5-34.2,22.3
		c-10.7,10.7-17.3,21.5-22.3,34.2c-4.8,12.3-8,26.3-9,46.8c-0.9,20.6-1.2,27.2-1.2,79.6c0,52.4,0.2,59,1.2,79.6
		c0.9,20.5,4.2,34.6,9,46.8c4.9,12.7,11.5,23.5,22.3,34.2c10.7,10.7,21.5,17.3,34.2,22.3c12.3,4.8,26.3,8,46.8,9
		C-68,805.8-61.4,806-9,806s59-0.2,79.6-1.2c20.5-0.9,34.6-4.2,46.8-9c12.7-4.9,23.5-11.5,34.2-22.3c10.7-10.7,17.3-21.5,22.3-34.2
		c4.8-12.3,8-26.3,9-46.8c0.9-20.6,1.2-27.2,1.2-79.6s-0.2-59-1.2-79.6c-0.9-20.5-4.2-34.6-9-46.8c-4.9-12.7-11.5-23.5-22.3-34.2
		c-10.7-10.7-21.5-17.3-34.2-22.3c-12.3-4.8-26.3-8-46.8-9C50,420.2,43.4,420-9,420L-9,420L-9,420z"/>
	<path d="M-9,513.9c-54.7,0-99.1,44.4-99.1,99.1s44.4,99.1,99.1,99.1s99.1-44.4,99.1-99.1S45.7,513.9-9,513.9L-9,513.9z M-9,677.3
		c-35.5,0-64.3-28.8-64.3-64.3s28.8-64.3,64.3-64.3c35.5,0,64.3,28.8,64.3,64.3S26.5,677.3-9,677.3L-9,677.3z"/>
	<path d="M117.2,510c0,12.8-10.4,23.2-23.2,23.2S70.9,522.8,70.9,510c0-12.8,10.4-23.2,23.2-23.2S117.2,497.2,117.2,510L117.2,510z"
		/>
</g>
</svg>
