<?xml version="1.0" encoding="UTF-8" standalone="no"?>
<svg width="386px" height="386px" viewBox="0 0 386 386" version="1.1" xmlns="http://www.w3.org/2000/svg" xmlns:xlink="http://www.w3.org/1999/xlink" xmlns:sketch="http://www.bohemiancoding.com/sketch/ns">
    <!-- Generator: Sketch 3.4.2 (15855) - http://www.bohemiancoding.com/sketch -->
    <title>Rectangle 1</title>
    <desc>Created with Sketch.</desc>
    <defs></defs>
    <g id="Page-1" stroke="none" stroke-width="1" fill="none" fill-rule="evenodd" sketch:type="MSPage">
        <path d="M79.3354528,160.921875 L45,160.921875 L45,325.996789 C45,333.732196 51.2694511,340 59.0032111,340 L326.996789,340 C334.732196,340 341,333.730549 341,325.996789 L341,160.921875 L310.664547,160.921875 C313.490187,171.132624 315,181.889994 315,193 C315,259.27417 261.27417,313 195,313 C128.72583,313 75,259.27417 75,193 C75,181.889994 76.5098129,171.132624 79.3354528,160.921875 Z M0,39.9903229 C0,17.9042774 17.9073839,0 39.9903229,0 L346.009677,0 C368.095723,0 386,17.9073839 386,39.9903229 L386,346.009677 C386,368.095723 368.092616,386 346.009677,386 L39.9903229,386 C17.9042774,386 0,368.092616 0,346.009677 L0,39.9903229 Z M193,266 C233.869071,266 267,232.869071 267,192 C267,151.130929 233.869071,118 193,118 C152.130929,118 119,151.130929 119,192 C119,232.869071 152.130929,266 193,266 Z M268,56.9956966 C268,49.8183716 273.822093,44 280.995697,44 L329.004303,44 C336.181628,44 342,49.8220933 342,56.9956966 L342,105.004303 C342,112.181628 336.177907,118 329.004303,118 L280.995697,118 C273.818372,118 268,112.177907 268,105.004303 L268,56.9956966 Z" id="Rectangle-1" fill="#FFFFFF" sketch:type="MSShapeGroup"></path>
    </g>
</svg>